<svg xmlns="http://www.w3.org/2000/svg" viewBox="0 0 1400 1000" role="img" aria-labelledby="title desc">
  <title id="title">Protected infrastructure illustration</title>
  <desc id="desc">A connected facility, wireless environment, and digital perimeter under active protection.</desc>
  <defs><linearGradient id="bg" x2="1" y2="1"><stop stop-color="#071827"/><stop offset="1" stop-color="#10384a"/></linearGradient><linearGradient id="c" x2="1" y2="1"><stop stop-color="#76f4ff"/><stop offset="1" stop-color="#1aa99a"/></linearGradient><pattern id="g" width="52" height="52" patternUnits="userSpaceOnUse"><path d="M52 0H0V52" fill="none" stroke="#7cefff" stroke-opacity=".065"/></pattern></defs>
  <rect width="1400" height="1000" rx="52" fill="url(#bg)"/><rect width="1400" height="1000" rx="52" fill="url(#g)"/>
  <g transform="translate(160 120)">
    <path d="M40 690h1000" stroke="#8ff6ff" stroke-opacity=".22" stroke-width="3"/>
    <g transform="translate(90 190)"><path d="m0 190 310-160 310 160v360H0z" fill="#0c2d3e" stroke="#68e9fb" stroke-opacity=".35" stroke-width="3"/><path d="M100 210h120v110H100zm300 0h120v110H400zM100 370h120v110H100zm300 0h120v110H400z" fill="#77efff" fill-opacity=".09" stroke="#77efff" stroke-opacity=".26"/><path d="M268 550V400h84v150" fill="#73ecfa" fill-opacity=".15" stroke="#73ecfa" stroke-opacity=".45"/><path d="M-50 191 310 0l360 191" fill="none" stroke="url(#c)" stroke-width="8" stroke-linecap="round"/></g>
    <g transform="translate(775 190)"><circle cx="120" cy="120" r="115" fill="#0c2c3c" stroke="#70efff" stroke-opacity=".45" stroke-width="3"/><path d="M120 55c51 0 93 41 93 92M120 88c33 0 60 27 60 60M120 122c14 0 26 12 26 26" fill="none" stroke="#75efff" stroke-width="7" stroke-linecap="round"/><circle cx="120" cy="160" r="12" fill="#7af2ff"/><path d="M120 238v258" stroke="#72eafb" stroke-opacity=".28" stroke-width="3" stroke-dasharray="8 11"/>
      <g transform="translate(10 350)"><path d="M110-68 198-31v72c0 76-36 137-88 168-52-31-88-92-88-168v-72z" fill="url(#c)" fill-opacity=".16" stroke="#7df2ff" stroke-width="4"/><path d="m77 50 25 25 50-64" fill="none" stroke="#92f6ff" stroke-width="9" stroke-linecap="round" stroke-linejoin="round"/></g></g>
    <g fill="#70eeff"><circle cx="155" cy="760" r="9"/><circle cx="480" cy="760" r="9"/><circle cx="805" cy="760" r="9"/></g><path d="M155 760h650" stroke="#70eeff" stroke-opacity=".38" stroke-width="2"/>
    <g fill="#86a7b5" font-family="Arial,sans-serif" font-size="18" letter-spacing="3"><text x="120" y="805">FACILITY</text><text x="430" y="805">NETWORK</text><text x="760" y="805">WIRELESS</text></g>
  </g>
</svg>
